<svg width="1920" height="1080" viewBox="0 0 1920 1080" fill="none" xmlns="http://www.w3.org/2000/svg">
  <rect width="1920" height="1080" fill="#1a0a1a"/>

  <!-- Product grid -->
  <rect x="200" y="80" width="400" height="440" rx="16" fill="#141414" stroke="#262626"/>
  <rect x="220" y="100" width="360" height="280" rx="12" fill="#262626"/>
  <rect x="280" y="140" width="240" height="200" rx="60" fill="#1a1a1a"/>
  <rect x="300" y="180" width="200" height="120" rx="40" fill="#ec4899" opacity="0.3"/>
  <rect x="220" y="400" width="200" height="24" rx="4" fill="#fafafa"/>
  <rect x="220" y="440" width="100" height="32" rx="4" fill="#ec4899"/>
  <rect x="480" y="440" width="80" height="32" rx="4" fill="#262626"/>

  <rect x="640" y="80" width="400" height="440" rx="16" fill="#141414" stroke="#262626"/>
  <rect x="660" y="100" width="360" height="280" rx="12" fill="#262626"/>
  <rect x="720" y="140" width="240" height="200" rx="60" fill="#1a1a1a"/>
  <rect x="740" y="180" width="200" height="120" rx="40" fill="#3b82f6" opacity="0.3"/>
  <rect x="660" y="400" width="180" height="24" rx="4" fill="#fafafa"/>
  <rect x="660" y="440" width="100" height="32" rx="4" fill="#ec4899"/>
  <rect x="920" y="440" width="80" height="32" rx="4" fill="#262626"/>

  <rect x="1080" y="80" width="400" height="440" rx="16" fill="#141414" stroke="#262626"/>
  <rect x="1100" y="100" width="360" height="280" rx="12" fill="#262626"/>
  <rect x="1160" y="140" width="240" height="200" rx="60" fill="#1a1a1a"/>
  <rect x="1180" y="180" width="200" height="120" rx="40" fill="#22c55e" opacity="0.3"/>
  <rect x="1100" y="400" width="220" height="24" rx="4" fill="#fafafa"/>
  <rect x="1100" y="440" width="100" height="32" rx="4" fill="#ec4899"/>
  <rect x="1360" y="440" width="80" height="32" rx="4" fill="#262626"/>

  <rect x="1520" y="80" width="200" height="440" rx="16" fill="#141414" stroke="#ec4899" stroke-dasharray="8 4"/>
  <rect x="1580" y="280" width="80" height="80" rx="8" fill="#ec4899" opacity="0.2"/>
  <rect x="1600" y="300" width="40" height="40" fill="none" stroke="#ec4899" stroke-width="2"/>

  <!-- Bottom row -->
  <rect x="200" y="560" width="400" height="440" rx="16" fill="#141414" stroke="#262626"/>
  <rect x="220" y="580" width="360" height="280" rx="12" fill="#262626"/>
  <rect x="220" y="880" width="160" height="24" rx="4" fill="#fafafa"/>
  <rect x="220" y="920" width="100" height="32" rx="4" fill="#ec4899"/>

  <rect x="640" y="560" width="400" height="440" rx="16" fill="#141414" stroke="#262626"/>
  <rect x="660" y="580" width="360" height="280" rx="12" fill="#262626"/>
  <rect x="660" y="880" width="200" height="24" rx="4" fill="#fafafa"/>
  <rect x="660" y="920" width="100" height="32" rx="4" fill="#ec4899"/>

  <rect x="1080" y="560" width="400" height="440" rx="16" fill="#141414" stroke="#262626"/>
  <rect x="1100" y="580" width="360" height="280" rx="12" fill="#262626"/>
  <rect x="1100" y="880" width="180" height="24" rx="4" fill="#fafafa"/>
  <rect x="1100" y="920" width="100" height="32" rx="4" fill="#ec4899"/>

  <text x="960" y="1040" text-anchor="middle" fill="#ec4899" font-family="system-ui" font-size="20" opacity="0.4">Product Catalog</text>
</svg>