<svg width="1920" height="1080" viewBox="0 0 1920 1080" fill="none" xmlns="http://www.w3.org/2000/svg">
  <rect width="1920" height="1080" fill="#0a0a0a"/>
  <rect x="160" y="120" width="1600" height="840" rx="24" fill="#141414" stroke="#262626" stroke-width="2"/>

  <!-- Header bar -->
  <rect x="160" y="120" width="1600" height="64" rx="24" fill="#1a1a1a"/>
  <rect x="220" y="140" width="100" height="24" rx="4" fill="#14b8a6"/>
  <rect x="1560" y="136" width="120" height="32" rx="16" fill="#14b8a6"/>

  <!-- Left content -->
  <rect x="280" y="320" width="500" height="64" rx="8" fill="#262626"/>
  <rect x="280" y="410" width="400" height="48" rx="8" fill="#262626"/>
  <rect x="280" y="490" width="550" height="24" rx="4" fill="#1a1a1a"/>
  <rect x="280" y="530" width="450" height="24" rx="4" fill="#1a1a1a"/>

  <!-- CTA Button -->
  <rect x="280" y="600" width="220" height="56" rx="28" fill="#14b8a6"/>
  <rect x="320" y="616" width="140" height="24" rx="4" fill="white" opacity="0.9"/>

  <!-- Wallet badges -->
  <rect x="280" y="700" width="160" height="48" rx="8" fill="#262626"/>
  <rect x="460" y="700" width="160" height="48" rx="8" fill="#262626"/>

  <!-- Phone mockup -->
  <rect x="1000" y="200" width="320" height="640" rx="40" fill="#1a1a1a" stroke="#262626" stroke-width="3"/>
  <rect x="1020" y="240" width="280" height="560" rx="24" fill="#262626"/>

  <!-- Phone content -->
  <rect x="1040" y="280" width="100" height="24" rx="4" fill="#14b8a6"/>
  <rect x="1040" y="340" width="240" height="32" rx="4" fill="#1a1a1a"/>

  <!-- Stamp cards -->
  <rect x="1040" y="400" width="240" height="120" rx="12" fill="#1a1a1a"/>
  <circle cx="1080" cy="460" r="20" fill="#14b8a6"/>
  <circle cx="1130" cy="460" r="20" fill="#14b8a6"/>
  <circle cx="1180" cy="460" r="20" fill="#14b8a6"/>
  <circle cx="1230" cy="460" r="20" fill="#14b8a6" opacity="0.3"/>

  <!-- Rewards -->
  <rect x="1040" y="540" width="240" height="60" rx="8" fill="#14b8a6"/>
  <rect x="1060" y="556" width="160" height="28" rx="4" fill="white" opacity="0.2"/>
  <rect x="1040" y="620" width="240" height="60" rx="8" fill="#14b8a6" opacity="0.7"/>

  <!-- Second phone (partial) -->
  <rect x="1400" y="300" width="280" height="560" rx="36" fill="#1a1a1a" stroke="#262626" stroke-width="3"/>
  <rect x="1416" y="336" width="248" height="488" rx="20" fill="#262626"/>

  <!-- Decorative -->
  <circle cx="800" cy="800" r="100" fill="#14b8a6" opacity="0.05"/>

  <text x="960" y="1000" text-anchor="middle" fill="#14b8a6" font-family="system-ui" font-size="24" font-weight="500" opacity="0.5">Gobonki</text>
</svg>