<svg width="1920" height="1080" viewBox="0 0 1920 1080" fill="none" xmlns="http://www.w3.org/2000/svg">
  <rect width="1920" height="1080" fill="#0a0a0a"/>

  <!-- Phone mockup -->
  <rect x="760" y="40" width="400" height="850" rx="48" fill="#fafafa" stroke="#e5e5e5" stroke-width="3"/>
  <rect x="780" y="80" width="360" height="770" rx="32" fill="#f5f5f5"/>

  <!-- Wallet pass -->
  <rect x="810" y="140" width="300" height="480" rx="16" fill="white" stroke="#e5e5e5"/>

  <!-- Business header -->
  <rect x="840" y="180" width="40" height="40" rx="8" fill="#14b8a6"/>
  <rect x="900" y="185" width="120" height="20" rx="4" fill="#262626"/>
  <rect x="900" y="210" width="80" height="16" rx="4" fill="#a1a1a1"/>

  <!-- Stamp card -->
  <rect x="840" y="280" width="240" height="160" rx="12" fill="#f0fdfa" stroke="#14b8a6"/>
  <rect x="870" y="310" width="120" height="16" rx="4" fill="#14b8a6"/>

  <!-- Stamps grid -->
  <circle cx="885" cy="380" r="24" fill="#14b8a6"/>
  <circle cx="945" cy="380" r="24" fill="#14b8a6"/>
  <circle cx="1005" cy="380" r="24" fill="#14b8a6"/>
  <circle cx="1035" cy="380" r="24" fill="#14b8a6" opacity="0.3"/>
  <circle cx="885" cy="420" r="24" fill="#e5e5e5"/>
  <circle cx="945" cy="420" r="24" fill="#e5e5e5"/>

  <!-- Reward -->
  <rect x="840" y="480" width="240" height="60" rx="8" fill="#14b8a6"/>
  <rect x="870" y="500" width="160" height="20" rx="4" fill="white" opacity="0.9"/>

  <!-- Recent activity -->
  <rect x="840" y="560" width="240" height="40" rx="4" fill="#f5f5f5"/>

  <!-- Apple Wallet badge -->
  <rect x="860" y="660" width="200" height="48" rx="8" fill="#262626"/>
  <rect x="890" y="676" width="140" height="16" rx="4" fill="white" opacity="0.8"/>

  <text x="960" y="1000" text-anchor="middle" fill="#14b8a6" font-family="system-ui" font-size="20" opacity="0.4">Apple Wallet Integration</text>
</svg>